<mxfile host="app.diagrams.net" modified="2024-06-29T07:28:53.448Z" agent="Mozilla/5.0 (Windows NT 10.0; Win64; x64) AppleWebKit/537.36 (KHTML, like Gecko) Chrome/126.0.0.0 Safari/537.36 Edg/126.0.0.0" etag="P6uQ8sKse5Hp4n6i18VM" version="24.6.4" type="github" pages="4">
  <diagram name="Page-1" id="e7e014a7-5840-1c2e-5031-d8a46d1fe8dd">
    <mxGraphModel dx="1285" dy="575" grid="1" gridSize="10" guides="1" tooltips="1" connect="1" arrows="1" fold="1" page="1" pageScale="1" pageWidth="1169" pageHeight="826" background="none" math="0" shadow="0">
      <root>
        <mxCell id="0" />
        <mxCell id="1" parent="0" />
        <mxCell id="2" value="Client" style="swimlane;whiteSpace=wrap" parent="1" vertex="1">
          <mxGeometry x="164.5" y="128" width="280" height="672" as="geometry" />
        </mxCell>
        <mxCell id="5" value="" style="ellipse;shape=startState;fillColor=#000000;strokeColor=#ff0000;" parent="2" vertex="1">
          <mxGeometry x="125" y="33" width="30" height="30" as="geometry" />
        </mxCell>
        <mxCell id="59_GWyZ8ASwaIHT2SDMB-48" value="" style="endArrow=classic;html=1;rounded=0;exitX=0.5;exitY=1;exitDx=0;exitDy=0;entryX=0.5;entryY=0;entryDx=0;entryDy=0;" parent="2" source="5" target="59_GWyZ8ASwaIHT2SDMB-63" edge="1">
          <mxGeometry width="50" height="50" relative="1" as="geometry">
            <mxPoint x="420.5" y="302" as="sourcePoint" />
            <mxPoint x="139.99999999999977" y="92" as="targetPoint" />
          </mxGeometry>
        </mxCell>
        <mxCell id="59_GWyZ8ASwaIHT2SDMB-63" value="Yêu cầu cử động cụ thể" style="rounded=0;whiteSpace=wrap;html=1;" parent="2" vertex="1">
          <mxGeometry x="80" y="102" width="120" height="60" as="geometry" />
        </mxCell>
        <mxCell id="59_GWyZ8ASwaIHT2SDMB-64" value="Nhập thông số điều khiển" style="rounded=0;whiteSpace=wrap;html=1;" parent="2" vertex="1">
          <mxGeometry x="80" y="194" width="120" height="60" as="geometry" />
        </mxCell>
        <mxCell id="59_GWyZ8ASwaIHT2SDMB-71" value="" style="endArrow=classic;html=1;rounded=0;exitX=0.5;exitY=1;exitDx=0;exitDy=0;entryX=0.5;entryY=0;entryDx=0;entryDy=0;" parent="2" source="59_GWyZ8ASwaIHT2SDMB-63" target="59_GWyZ8ASwaIHT2SDMB-64" edge="1">
          <mxGeometry width="50" height="50" relative="1" as="geometry">
            <mxPoint x="425.5" y="102" as="sourcePoint" />
            <mxPoint x="475.5" y="52" as="targetPoint" />
          </mxGeometry>
        </mxCell>
        <mxCell id="3" value="Server" style="swimlane;whiteSpace=wrap" parent="1" vertex="1">
          <mxGeometry x="444.5" y="128" width="280" height="672" as="geometry" />
        </mxCell>
        <mxCell id="59_GWyZ8ASwaIHT2SDMB-65" value="Nhận thông tin" style="rounded=0;whiteSpace=wrap;html=1;" parent="3" vertex="1">
          <mxGeometry x="80" y="194" width="120" height="60" as="geometry" />
        </mxCell>
        <mxCell id="59_GWyZ8ASwaIHT2SDMB-75" value="" style="edgeStyle=orthogonalEdgeStyle;rounded=0;orthogonalLoop=1;jettySize=auto;html=1;" parent="3" source="59_GWyZ8ASwaIHT2SDMB-66" target="59_GWyZ8ASwaIHT2SDMB-67" edge="1">
          <mxGeometry relative="1" as="geometry" />
        </mxCell>
        <mxCell id="59_GWyZ8ASwaIHT2SDMB-66" value="Gọi hàm xử lý tương ứng" style="rounded=0;whiteSpace=wrap;html=1;" parent="3" vertex="1">
          <mxGeometry x="80" y="292" width="120" height="60" as="geometry" />
        </mxCell>
        <mxCell id="59_GWyZ8ASwaIHT2SDMB-67" value="Xử lý dữ liệu rồi gửi thông báo tới cobot" style="rounded=0;whiteSpace=wrap;html=1;" parent="3" vertex="1">
          <mxGeometry x="80" y="392" width="120" height="60" as="geometry" />
        </mxCell>
        <mxCell id="59_GWyZ8ASwaIHT2SDMB-57" value="" style="ellipse;html=1;shape=endState;fillColor=#000000;strokeColor=#ff0000;" parent="3" vertex="1">
          <mxGeometry x="125" y="612" width="30" height="30" as="geometry" />
        </mxCell>
        <mxCell id="59_GWyZ8ASwaIHT2SDMB-82" value="" style="edgeStyle=orthogonalEdgeStyle;rounded=0;orthogonalLoop=1;jettySize=auto;html=1;" parent="3" source="59_GWyZ8ASwaIHT2SDMB-70" target="59_GWyZ8ASwaIHT2SDMB-57" edge="1">
          <mxGeometry relative="1" as="geometry" />
        </mxCell>
        <mxCell id="59_GWyZ8ASwaIHT2SDMB-70" value="Nhận thông báo" style="rounded=0;whiteSpace=wrap;html=1;" parent="3" vertex="1">
          <mxGeometry x="80" y="492" width="120" height="60" as="geometry" />
        </mxCell>
        <mxCell id="59_GWyZ8ASwaIHT2SDMB-73" value="" style="endArrow=classic;html=1;rounded=0;exitX=0.5;exitY=1;exitDx=0;exitDy=0;entryX=0.5;entryY=0;entryDx=0;entryDy=0;" parent="3" source="59_GWyZ8ASwaIHT2SDMB-65" target="59_GWyZ8ASwaIHT2SDMB-66" edge="1">
          <mxGeometry width="50" height="50" relative="1" as="geometry">
            <mxPoint x="145.5" y="102" as="sourcePoint" />
            <mxPoint x="195.5" y="52" as="targetPoint" />
          </mxGeometry>
        </mxCell>
        <mxCell id="4" value="Cobot" style="swimlane;whiteSpace=wrap" parent="1" vertex="1">
          <mxGeometry x="724.5" y="128" width="280" height="672" as="geometry" />
        </mxCell>
        <mxCell id="59_GWyZ8ASwaIHT2SDMB-80" value="" style="edgeStyle=orthogonalEdgeStyle;rounded=0;orthogonalLoop=1;jettySize=auto;html=1;" parent="4" source="59_GWyZ8ASwaIHT2SDMB-68" target="59_GWyZ8ASwaIHT2SDMB-69" edge="1">
          <mxGeometry relative="1" as="geometry" />
        </mxCell>
        <mxCell id="59_GWyZ8ASwaIHT2SDMB-68" value="Nhận thông báo từ server và thực hiện hành động với thông số nhận được" style="rounded=0;whiteSpace=wrap;html=1;" parent="4" vertex="1">
          <mxGeometry x="80" y="392" width="120" height="60" as="geometry" />
        </mxCell>
        <mxCell id="59_GWyZ8ASwaIHT2SDMB-69" value="Gửi lại thông báo cho server" style="rounded=0;whiteSpace=wrap;html=1;" parent="4" vertex="1">
          <mxGeometry x="80" y="492" width="120" height="60" as="geometry" />
        </mxCell>
        <mxCell id="59_GWyZ8ASwaIHT2SDMB-72" value="" style="endArrow=classic;html=1;rounded=0;exitX=1;exitY=0.5;exitDx=0;exitDy=0;entryX=0;entryY=0.5;entryDx=0;entryDy=0;" parent="1" source="59_GWyZ8ASwaIHT2SDMB-64" target="59_GWyZ8ASwaIHT2SDMB-65" edge="1">
          <mxGeometry width="50" height="50" relative="1" as="geometry">
            <mxPoint x="590" y="230" as="sourcePoint" />
            <mxPoint x="640" y="180" as="targetPoint" />
          </mxGeometry>
        </mxCell>
        <mxCell id="59_GWyZ8ASwaIHT2SDMB-79" style="edgeStyle=orthogonalEdgeStyle;rounded=0;orthogonalLoop=1;jettySize=auto;html=1;entryX=0;entryY=0.5;entryDx=0;entryDy=0;" parent="1" source="59_GWyZ8ASwaIHT2SDMB-67" target="59_GWyZ8ASwaIHT2SDMB-68" edge="1">
          <mxGeometry relative="1" as="geometry" />
        </mxCell>
        <mxCell id="59_GWyZ8ASwaIHT2SDMB-81" style="edgeStyle=orthogonalEdgeStyle;rounded=0;orthogonalLoop=1;jettySize=auto;html=1;entryX=1;entryY=0.5;entryDx=0;entryDy=0;" parent="1" source="59_GWyZ8ASwaIHT2SDMB-69" target="59_GWyZ8ASwaIHT2SDMB-70" edge="1">
          <mxGeometry relative="1" as="geometry" />
        </mxCell>
      </root>
    </mxGraphModel>
  </diagram>
  <diagram id="MpUHfKjzbY3Gi0lbSYDI" name="Trang-2">
    <mxGraphModel grid="1" page="1" gridSize="10" guides="1" tooltips="1" connect="1" arrows="1" fold="1" pageScale="1" pageWidth="827" pageHeight="1169" math="0" shadow="0">
      <root>
        <mxCell id="0" />
        <mxCell id="1" parent="0" />
        <mxCell id="2_Jct9ejwPQZz4MT1TEG-1" value="Client" style="swimlane;whiteSpace=wrap" parent="1" vertex="1">
          <mxGeometry x="40" y="120" width="280" height="870" as="geometry" />
        </mxCell>
        <mxCell id="2_Jct9ejwPQZz4MT1TEG-2" value="" style="ellipse;shape=startState;fillColor=#000000;strokeColor=#ff0000;" parent="2_Jct9ejwPQZz4MT1TEG-1" vertex="1">
          <mxGeometry x="125" y="33" width="30" height="30" as="geometry" />
        </mxCell>
        <mxCell id="2_Jct9ejwPQZz4MT1TEG-3" value="" style="endArrow=classic;html=1;rounded=0;exitX=0.5;exitY=1;exitDx=0;exitDy=0;entryX=0.5;entryY=0;entryDx=0;entryDy=0;" parent="2_Jct9ejwPQZz4MT1TEG-1" source="2_Jct9ejwPQZz4MT1TEG-2" target="2_Jct9ejwPQZz4MT1TEG-23" edge="1">
          <mxGeometry width="50" height="50" relative="1" as="geometry">
            <mxPoint x="420.5" y="302" as="sourcePoint" />
            <mxPoint x="140" y="102" as="targetPoint" />
          </mxGeometry>
        </mxCell>
        <mxCell id="EDYje7AA_eoy3ljEwg3r-2" value="" style="edgeStyle=orthogonalEdgeStyle;rounded=0;orthogonalLoop=1;jettySize=auto;html=1;" parent="2_Jct9ejwPQZz4MT1TEG-1" source="2_Jct9ejwPQZz4MT1TEG-23" target="EDYje7AA_eoy3ljEwg3r-1" edge="1">
          <mxGeometry relative="1" as="geometry" />
        </mxCell>
        <mxCell id="2_Jct9ejwPQZz4MT1TEG-23" value="phát hiện vật thể nhận diện" style="html=1;whiteSpace=wrap;" parent="2_Jct9ejwPQZz4MT1TEG-1" vertex="1">
          <mxGeometry x="85" y="100" width="110" height="50" as="geometry" />
        </mxCell>
        <mxCell id="EDYje7AA_eoy3ljEwg3r-7" value="" style="edgeStyle=orthogonalEdgeStyle;rounded=0;orthogonalLoop=1;jettySize=auto;html=1;" parent="2_Jct9ejwPQZz4MT1TEG-1" source="EDYje7AA_eoy3ljEwg3r-1" target="EDYje7AA_eoy3ljEwg3r-6" edge="1">
          <mxGeometry relative="1" as="geometry" />
        </mxCell>
        <mxCell id="EDYje7AA_eoy3ljEwg3r-1" value="xác định các thông số" style="html=1;whiteSpace=wrap;" parent="2_Jct9ejwPQZz4MT1TEG-1" vertex="1">
          <mxGeometry x="85" y="193" width="110" height="50" as="geometry" />
        </mxCell>
        <mxCell id="EDYje7AA_eoy3ljEwg3r-6" value="gửi thông báo với các thông tin đã xác định" style="html=1;whiteSpace=wrap;" parent="2_Jct9ejwPQZz4MT1TEG-1" vertex="1">
          <mxGeometry x="85" y="323" width="110" height="50" as="geometry" />
        </mxCell>
        <mxCell id="EDYje7AA_eoy3ljEwg3r-18" value="" style="edgeStyle=orthogonalEdgeStyle;rounded=0;orthogonalLoop=1;jettySize=auto;html=1;" parent="2_Jct9ejwPQZz4MT1TEG-1" source="EDYje7AA_eoy3ljEwg3r-15" target="EDYje7AA_eoy3ljEwg3r-17" edge="1">
          <mxGeometry relative="1" as="geometry" />
        </mxCell>
        <mxCell id="EDYje7AA_eoy3ljEwg3r-15" value="không phát hiện được vật thể nữa" style="html=1;whiteSpace=wrap;" parent="2_Jct9ejwPQZz4MT1TEG-1" vertex="1">
          <mxGeometry x="85" y="514" width="110" height="50" as="geometry" />
        </mxCell>
        <mxCell id="EDYje7AA_eoy3ljEwg3r-17" value="gửi thông báo vật thể nào đã biến mất" style="html=1;whiteSpace=wrap;" parent="2_Jct9ejwPQZz4MT1TEG-1" vertex="1">
          <mxGeometry x="85" y="644" width="110" height="50" as="geometry" />
        </mxCell>
        <mxCell id="2_Jct9ejwPQZz4MT1TEG-7" value="Server" style="swimlane;whiteSpace=wrap" parent="1" vertex="1">
          <mxGeometry x="320" y="120" width="280" height="870" as="geometry" />
        </mxCell>
        <mxCell id="EDYje7AA_eoy3ljEwg3r-10" value="" style="edgeStyle=orthogonalEdgeStyle;rounded=0;orthogonalLoop=1;jettySize=auto;html=1;" parent="2_Jct9ejwPQZz4MT1TEG-7" source="EDYje7AA_eoy3ljEwg3r-5" target="EDYje7AA_eoy3ljEwg3r-9" edge="1">
          <mxGeometry relative="1" as="geometry" />
        </mxCell>
        <mxCell id="EDYje7AA_eoy3ljEwg3r-5" value="nhân thông báo kèm thông tin" style="html=1;whiteSpace=wrap;" parent="2_Jct9ejwPQZz4MT1TEG-7" vertex="1">
          <mxGeometry x="85" y="323" width="110" height="50" as="geometry" />
        </mxCell>
        <mxCell id="EDYje7AA_eoy3ljEwg3r-9" value="xử lý thông tin" style="html=1;whiteSpace=wrap;" parent="2_Jct9ejwPQZz4MT1TEG-7" vertex="1">
          <mxGeometry x="85" y="453" width="110" height="50" as="geometry" />
        </mxCell>
        <mxCell id="EDYje7AA_eoy3ljEwg3r-19" value="nhận thông báo" style="html=1;whiteSpace=wrap;" parent="2_Jct9ejwPQZz4MT1TEG-7" vertex="1">
          <mxGeometry x="85" y="644" width="110" height="50" as="geometry" />
        </mxCell>
        <mxCell id="EDYje7AA_eoy3ljEwg3r-23" value="nhận phản hồi" style="html=1;whiteSpace=wrap;" parent="2_Jct9ejwPQZz4MT1TEG-7" vertex="1">
          <mxGeometry x="85" y="734" width="110" height="50" as="geometry" />
        </mxCell>
        <mxCell id="2_Jct9ejwPQZz4MT1TEG-12" value="" style="ellipse;html=1;shape=endState;fillColor=#000000;strokeColor=#ff0000;" parent="2_Jct9ejwPQZz4MT1TEG-7" vertex="1">
          <mxGeometry x="125" y="823" width="30" height="30" as="geometry" />
        </mxCell>
        <mxCell id="2_Jct9ejwPQZz4MT1TEG-13" value="" style="edgeStyle=orthogonalEdgeStyle;rounded=0;orthogonalLoop=1;jettySize=auto;html=1;exitX=0.5;exitY=1;exitDx=0;exitDy=0;" parent="2_Jct9ejwPQZz4MT1TEG-7" source="EDYje7AA_eoy3ljEwg3r-23" target="2_Jct9ejwPQZz4MT1TEG-12" edge="1">
          <mxGeometry relative="1" as="geometry">
            <mxPoint x="-140" y="829.9999999999998" as="sourcePoint" />
          </mxGeometry>
        </mxCell>
        <mxCell id="d6udoI3tL6hQCt8qDkDH-1" value="nhận phản hồi" style="html=1;whiteSpace=wrap;" vertex="1" parent="2_Jct9ejwPQZz4MT1TEG-7">
          <mxGeometry x="85" y="550" width="110" height="50" as="geometry" />
        </mxCell>
        <mxCell id="2_Jct9ejwPQZz4MT1TEG-16" value="Database" style="swimlane;whiteSpace=wrap" parent="1" vertex="1">
          <mxGeometry x="600" y="120" width="280" height="870" as="geometry" />
        </mxCell>
        <mxCell id="EDYje7AA_eoy3ljEwg3r-11" value="lưu dữ liệu" style="html=1;whiteSpace=wrap;" parent="2_Jct9ejwPQZz4MT1TEG-16" vertex="1">
          <mxGeometry x="85" y="453" width="110" height="50" as="geometry" />
        </mxCell>
        <mxCell id="EDYje7AA_eoy3ljEwg3r-21" value="xóa dữ liệu" style="html=1;whiteSpace=wrap;" parent="2_Jct9ejwPQZz4MT1TEG-16" vertex="1">
          <mxGeometry x="85" y="644" width="110" height="50" as="geometry" />
        </mxCell>
        <mxCell id="EDYje7AA_eoy3ljEwg3r-8" style="edgeStyle=orthogonalEdgeStyle;rounded=0;orthogonalLoop=1;jettySize=auto;html=1;entryX=0;entryY=0.5;entryDx=0;entryDy=0;" parent="1" source="EDYje7AA_eoy3ljEwg3r-6" target="EDYje7AA_eoy3ljEwg3r-5" edge="1">
          <mxGeometry relative="1" as="geometry" />
        </mxCell>
        <mxCell id="EDYje7AA_eoy3ljEwg3r-12" style="edgeStyle=orthogonalEdgeStyle;rounded=0;orthogonalLoop=1;jettySize=auto;html=1;entryX=0;entryY=0.5;entryDx=0;entryDy=0;" parent="1" source="EDYje7AA_eoy3ljEwg3r-9" target="EDYje7AA_eoy3ljEwg3r-11" edge="1">
          <mxGeometry relative="1" as="geometry" />
        </mxCell>
        <mxCell id="EDYje7AA_eoy3ljEwg3r-20" style="edgeStyle=orthogonalEdgeStyle;rounded=0;orthogonalLoop=1;jettySize=auto;html=1;entryX=0;entryY=0.5;entryDx=0;entryDy=0;" parent="1" source="EDYje7AA_eoy3ljEwg3r-17" target="EDYje7AA_eoy3ljEwg3r-19" edge="1">
          <mxGeometry relative="1" as="geometry" />
        </mxCell>
        <mxCell id="EDYje7AA_eoy3ljEwg3r-22" style="edgeStyle=orthogonalEdgeStyle;rounded=0;orthogonalLoop=1;jettySize=auto;html=1;entryX=0;entryY=0.5;entryDx=0;entryDy=0;" parent="1" source="EDYje7AA_eoy3ljEwg3r-19" target="EDYje7AA_eoy3ljEwg3r-21" edge="1">
          <mxGeometry relative="1" as="geometry" />
        </mxCell>
        <mxCell id="EDYje7AA_eoy3ljEwg3r-25" style="edgeStyle=orthogonalEdgeStyle;rounded=0;orthogonalLoop=1;jettySize=auto;html=1;exitX=0.5;exitY=1;exitDx=0;exitDy=0;entryX=1;entryY=0.5;entryDx=0;entryDy=0;" parent="1" source="EDYje7AA_eoy3ljEwg3r-21" target="EDYje7AA_eoy3ljEwg3r-23" edge="1">
          <mxGeometry relative="1" as="geometry" />
        </mxCell>
        <mxCell id="d6udoI3tL6hQCt8qDkDH-3" style="edgeStyle=orthogonalEdgeStyle;rounded=0;orthogonalLoop=1;jettySize=auto;html=1;exitX=0.5;exitY=1;exitDx=0;exitDy=0;entryX=1;entryY=0.5;entryDx=0;entryDy=0;" edge="1" parent="1" source="EDYje7AA_eoy3ljEwg3r-11" target="d6udoI3tL6hQCt8qDkDH-1">
          <mxGeometry relative="1" as="geometry" />
        </mxCell>
      </root>
    </mxGraphModel>
  </diagram>
  <diagram id="HqI661LDp969lWJqWvcN" name="Trang-3">
    <mxGraphModel grid="1" page="1" gridSize="10" guides="1" tooltips="1" connect="1" arrows="1" fold="1" pageScale="1" pageWidth="827" pageHeight="1169" math="0" shadow="0">
      <root>
        <mxCell id="0" />
        <mxCell id="1" parent="0" />
        <mxCell id="lYsrvYlmVam68GeYXWwn-1" value="Cobot" style="swimlane;whiteSpace=wrap" vertex="1" parent="1">
          <mxGeometry x="40" y="120" width="280" height="960" as="geometry" />
        </mxCell>
        <mxCell id="lYsrvYlmVam68GeYXWwn-2" value="" style="ellipse;shape=startState;fillColor=#000000;strokeColor=#ff0000;" vertex="1" parent="lYsrvYlmVam68GeYXWwn-1">
          <mxGeometry x="125" y="33" width="30" height="30" as="geometry" />
        </mxCell>
        <mxCell id="2RRFr4Ic-6KyDDVoMjK3-2" value="" style="edgeStyle=orthogonalEdgeStyle;rounded=0;orthogonalLoop=1;jettySize=auto;html=1;" edge="1" parent="lYsrvYlmVam68GeYXWwn-1" source="lYsrvYlmVam68GeYXWwn-29" target="2RRFr4Ic-6KyDDVoMjK3-1">
          <mxGeometry relative="1" as="geometry" />
        </mxCell>
        <mxCell id="lYsrvYlmVam68GeYXWwn-29" value="cobot đang ở trạng thái tĩnh nhận được thông báo từ server thực hiện hành động" style="html=1;whiteSpace=wrap;" vertex="1" parent="lYsrvYlmVam68GeYXWwn-1">
          <mxGeometry x="77.5" y="100" width="125" height="80" as="geometry" />
        </mxCell>
        <mxCell id="lYsrvYlmVam68GeYXWwn-28" value="" style="endArrow=classic;html=1;rounded=0;exitX=0.5;exitY=1;exitDx=0;exitDy=0;entryX=0.5;entryY=0;entryDx=0;entryDy=0;" edge="1" parent="lYsrvYlmVam68GeYXWwn-1" source="lYsrvYlmVam68GeYXWwn-2" target="lYsrvYlmVam68GeYXWwn-29">
          <mxGeometry width="50" height="50" relative="1" as="geometry">
            <mxPoint x="450" y="370" as="sourcePoint" />
            <mxPoint x="140" y="90" as="targetPoint" />
          </mxGeometry>
        </mxCell>
        <mxCell id="2RRFr4Ic-6KyDDVoMjK3-6" value="" style="edgeStyle=orthogonalEdgeStyle;rounded=0;orthogonalLoop=1;jettySize=auto;html=1;" edge="1" parent="lYsrvYlmVam68GeYXWwn-1" source="2RRFr4Ic-6KyDDVoMjK3-1" target="2RRFr4Ic-6KyDDVoMjK3-5">
          <mxGeometry relative="1" as="geometry" />
        </mxCell>
        <mxCell id="2RRFr4Ic-6KyDDVoMjK3-1" value="chuyển động&amp;nbsp;" style="html=1;whiteSpace=wrap;" vertex="1" parent="lYsrvYlmVam68GeYXWwn-1">
          <mxGeometry x="85" y="223" width="110" height="50" as="geometry" />
        </mxCell>
        <mxCell id="2RRFr4Ic-6KyDDVoMjK3-5" value="gửi thông báo trạng thái liên tục cho server" style="html=1;whiteSpace=wrap;" vertex="1" parent="lYsrvYlmVam68GeYXWwn-1">
          <mxGeometry x="85" y="319" width="110" height="50" as="geometry" />
        </mxCell>
        <mxCell id="2RRFr4Ic-6KyDDVoMjK3-17" value="" style="edgeStyle=orthogonalEdgeStyle;rounded=0;orthogonalLoop=1;jettySize=auto;html=1;" edge="1" parent="lYsrvYlmVam68GeYXWwn-1" source="2RRFr4Ic-6KyDDVoMjK3-13" target="2RRFr4Ic-6KyDDVoMjK3-16">
          <mxGeometry relative="1" as="geometry" />
        </mxCell>
        <mxCell id="2RRFr4Ic-6KyDDVoMjK3-13" value="cobot chuyển động" style="html=1;whiteSpace=wrap;" vertex="1" parent="lYsrvYlmVam68GeYXWwn-1">
          <mxGeometry x="85" y="494" width="110" height="50" as="geometry" />
        </mxCell>
        <mxCell id="2RRFr4Ic-6KyDDVoMjK3-16" value="gửi thông báo trại thái cho server" style="html=1;whiteSpace=wrap;" vertex="1" parent="lYsrvYlmVam68GeYXWwn-1">
          <mxGeometry x="85" y="600" width="110" height="50" as="geometry" />
        </mxCell>
        <mxCell id="lYsrvYlmVam68GeYXWwn-12" value="Server" style="swimlane;whiteSpace=wrap" vertex="1" parent="1">
          <mxGeometry x="320" y="120" width="280" height="960" as="geometry" />
        </mxCell>
        <mxCell id="lYsrvYlmVam68GeYXWwn-18" value="" style="ellipse;html=1;shape=endState;fillColor=#000000;strokeColor=#ff0000;" vertex="1" parent="lYsrvYlmVam68GeYXWwn-12">
          <mxGeometry x="125" y="904" width="30" height="30" as="geometry" />
        </mxCell>
        <mxCell id="lYsrvYlmVam68GeYXWwn-19" value="" style="edgeStyle=orthogonalEdgeStyle;rounded=0;orthogonalLoop=1;jettySize=auto;html=1;exitX=0.5;exitY=1;exitDx=0;exitDy=0;" edge="1" parent="lYsrvYlmVam68GeYXWwn-12" source="2RRFr4Ic-6KyDDVoMjK3-29" target="lYsrvYlmVam68GeYXWwn-18">
          <mxGeometry relative="1" as="geometry">
            <mxPoint x="140" y="1034" as="sourcePoint" />
          </mxGeometry>
        </mxCell>
        <mxCell id="2RRFr4Ic-6KyDDVoMjK3-10" value="" style="edgeStyle=orthogonalEdgeStyle;rounded=0;orthogonalLoop=1;jettySize=auto;html=1;" edge="1" parent="lYsrvYlmVam68GeYXWwn-12" source="2RRFr4Ic-6KyDDVoMjK3-7" target="2RRFr4Ic-6KyDDVoMjK3-9">
          <mxGeometry relative="1" as="geometry" />
        </mxCell>
        <mxCell id="2RRFr4Ic-6KyDDVoMjK3-7" value="server nhận thông báo kèm thông tin" style="html=1;whiteSpace=wrap;" vertex="1" parent="lYsrvYlmVam68GeYXWwn-12">
          <mxGeometry x="85" y="319" width="110" height="50" as="geometry" />
        </mxCell>
        <mxCell id="2RRFr4Ic-6KyDDVoMjK3-9" value="xử lý thông tin" style="html=1;whiteSpace=wrap;" vertex="1" parent="lYsrvYlmVam68GeYXWwn-12">
          <mxGeometry x="85" y="415" width="110" height="50" as="geometry" />
        </mxCell>
        <mxCell id="2RRFr4Ic-6KyDDVoMjK3-25" value="" style="edgeStyle=orthogonalEdgeStyle;rounded=0;orthogonalLoop=1;jettySize=auto;html=1;" edge="1" parent="lYsrvYlmVam68GeYXWwn-12" source="2RRFr4Ic-6KyDDVoMjK3-23" target="2RRFr4Ic-6KyDDVoMjK3-24">
          <mxGeometry relative="1" as="geometry" />
        </mxCell>
        <mxCell id="2RRFr4Ic-6KyDDVoMjK3-23" value="serer nhận thông báo kèm thông tin" style="html=1;whiteSpace=wrap;" vertex="1" parent="lYsrvYlmVam68GeYXWwn-12">
          <mxGeometry x="85" y="600" width="110" height="50" as="geometry" />
        </mxCell>
        <mxCell id="2RRFr4Ic-6KyDDVoMjK3-24" value="xử lý thông tin" style="html=1;whiteSpace=wrap;" vertex="1" parent="lYsrvYlmVam68GeYXWwn-12">
          <mxGeometry x="85" y="700" width="110" height="50" as="geometry" />
        </mxCell>
        <mxCell id="2RRFr4Ic-6KyDDVoMjK3-29" value="nhận phản hồi" style="html=1;whiteSpace=wrap;" vertex="1" parent="lYsrvYlmVam68GeYXWwn-12">
          <mxGeometry x="85" y="800" width="110" height="50" as="geometry" />
        </mxCell>
        <mxCell id="2RRFr4Ic-6KyDDVoMjK3-31" value="nhận phản hồi" style="html=1;whiteSpace=wrap;" vertex="1" parent="lYsrvYlmVam68GeYXWwn-12">
          <mxGeometry x="85" y="515" width="110" height="50" as="geometry" />
        </mxCell>
        <mxCell id="lYsrvYlmVam68GeYXWwn-20" value="Database" style="swimlane;whiteSpace=wrap" vertex="1" parent="1">
          <mxGeometry x="600" y="120" width="280" height="960" as="geometry" />
        </mxCell>
        <mxCell id="2RRFr4Ic-6KyDDVoMjK3-11" value="lưu lưu dữ liệu" style="html=1;whiteSpace=wrap;" vertex="1" parent="lYsrvYlmVam68GeYXWwn-20">
          <mxGeometry x="85" y="415" width="110" height="50" as="geometry" />
        </mxCell>
        <mxCell id="2RRFr4Ic-6KyDDVoMjK3-26" value="cập nhật lại dữ liệu" style="html=1;whiteSpace=wrap;" vertex="1" parent="lYsrvYlmVam68GeYXWwn-20">
          <mxGeometry x="85" y="700" width="110" height="50" as="geometry" />
        </mxCell>
        <mxCell id="2RRFr4Ic-6KyDDVoMjK3-8" style="edgeStyle=orthogonalEdgeStyle;rounded=0;orthogonalLoop=1;jettySize=auto;html=1;entryX=0;entryY=0.5;entryDx=0;entryDy=0;" edge="1" parent="1" source="2RRFr4Ic-6KyDDVoMjK3-5" target="2RRFr4Ic-6KyDDVoMjK3-7">
          <mxGeometry relative="1" as="geometry" />
        </mxCell>
        <mxCell id="2RRFr4Ic-6KyDDVoMjK3-12" style="edgeStyle=orthogonalEdgeStyle;rounded=0;orthogonalLoop=1;jettySize=auto;html=1;entryX=0;entryY=0.5;entryDx=0;entryDy=0;" edge="1" parent="1" source="2RRFr4Ic-6KyDDVoMjK3-9" target="2RRFr4Ic-6KyDDVoMjK3-11">
          <mxGeometry relative="1" as="geometry" />
        </mxCell>
        <mxCell id="2RRFr4Ic-6KyDDVoMjK3-30" style="edgeStyle=orthogonalEdgeStyle;rounded=0;orthogonalLoop=1;jettySize=auto;html=1;exitX=0.5;exitY=1;exitDx=0;exitDy=0;entryX=1;entryY=0.5;entryDx=0;entryDy=0;" edge="1" parent="1" source="2RRFr4Ic-6KyDDVoMjK3-26" target="2RRFr4Ic-6KyDDVoMjK3-29">
          <mxGeometry relative="1" as="geometry" />
        </mxCell>
        <mxCell id="2RRFr4Ic-6KyDDVoMjK3-32" style="edgeStyle=orthogonalEdgeStyle;rounded=0;orthogonalLoop=1;jettySize=auto;html=1;exitX=0.5;exitY=1;exitDx=0;exitDy=0;entryX=1;entryY=0.5;entryDx=0;entryDy=0;" edge="1" parent="1" source="2RRFr4Ic-6KyDDVoMjK3-11" target="2RRFr4Ic-6KyDDVoMjK3-31">
          <mxGeometry relative="1" as="geometry" />
        </mxCell>
        <mxCell id="2RRFr4Ic-6KyDDVoMjK3-33" style="edgeStyle=orthogonalEdgeStyle;rounded=0;orthogonalLoop=1;jettySize=auto;html=1;entryX=0;entryY=0.5;entryDx=0;entryDy=0;" edge="1" parent="1" source="2RRFr4Ic-6KyDDVoMjK3-16" target="2RRFr4Ic-6KyDDVoMjK3-23">
          <mxGeometry relative="1" as="geometry" />
        </mxCell>
        <mxCell id="2RRFr4Ic-6KyDDVoMjK3-34" style="edgeStyle=orthogonalEdgeStyle;rounded=0;orthogonalLoop=1;jettySize=auto;html=1;entryX=0;entryY=0.5;entryDx=0;entryDy=0;" edge="1" parent="1" source="2RRFr4Ic-6KyDDVoMjK3-24" target="2RRFr4Ic-6KyDDVoMjK3-26">
          <mxGeometry relative="1" as="geometry" />
        </mxCell>
      </root>
    </mxGraphModel>
  </diagram>
  <diagram id="1FOG9N8If_TXq8pITopg" name="Trang-4">
    <mxGraphModel dx="1285" dy="575" grid="1" gridSize="10" guides="1" tooltips="1" connect="1" arrows="1" fold="1" page="1" pageScale="1" pageWidth="827" pageHeight="1169" math="0" shadow="0">
      <root>
        <mxCell id="0" />
        <mxCell id="1" parent="0" />
        <mxCell id="HCHk4H_gu4r0GK-goqtj-1" value="Client" style="swimlane;whiteSpace=wrap;startSize=23;" parent="1" vertex="1">
          <mxGeometry x="120" y="120" width="240" height="580" as="geometry" />
        </mxCell>
        <mxCell id="HCHk4H_gu4r0GK-goqtj-2" value="" style="ellipse;shape=startState;fillColor=#000000;strokeColor=#ff0000;" parent="HCHk4H_gu4r0GK-goqtj-1" vertex="1">
          <mxGeometry x="105" y="33" width="30" height="30" as="geometry" />
        </mxCell>
        <mxCell id="ih6l_atxyEk43AbiFjjY-2" value="" style="edgeStyle=orthogonalEdgeStyle;rounded=0;orthogonalLoop=1;jettySize=auto;html=1;exitX=0.5;exitY=1;exitDx=0;exitDy=0;" parent="HCHk4H_gu4r0GK-goqtj-1" source="HCHk4H_gu4r0GK-goqtj-2" target="ih6l_atxyEk43AbiFjjY-1" edge="1">
          <mxGeometry relative="1" as="geometry">
            <mxPoint x="140" y="150" as="sourcePoint" />
          </mxGeometry>
        </mxCell>
        <mxCell id="ih6l_atxyEk43AbiFjjY-1" value="nhận tương tác đầu vào&amp;nbsp;" style="html=1;whiteSpace=wrap;" parent="HCHk4H_gu4r0GK-goqtj-1" vertex="1">
          <mxGeometry x="65" y="108" width="110" height="50" as="geometry" />
        </mxCell>
        <mxCell id="ih6l_atxyEk43AbiFjjY-12" value="nhận thông tin phản hồi" style="html=1;whiteSpace=wrap;" parent="HCHk4H_gu4r0GK-goqtj-1" vertex="1">
          <mxGeometry x="65" y="440" width="110" height="50" as="geometry" />
        </mxCell>
        <mxCell id="HCHk4H_gu4r0GK-goqtj-13" value="" style="ellipse;html=1;shape=endState;fillColor=#000000;strokeColor=#ff0000;" parent="HCHk4H_gu4r0GK-goqtj-1" vertex="1">
          <mxGeometry x="105" y="535.5" width="30" height="30" as="geometry" />
        </mxCell>
        <mxCell id="HCHk4H_gu4r0GK-goqtj-14" value="" style="edgeStyle=orthogonalEdgeStyle;rounded=0;orthogonalLoop=1;jettySize=auto;html=1;exitX=0.5;exitY=1;exitDx=0;exitDy=0;" parent="HCHk4H_gu4r0GK-goqtj-1" source="ih6l_atxyEk43AbiFjjY-12" target="HCHk4H_gu4r0GK-goqtj-13" edge="1">
          <mxGeometry relative="1" as="geometry">
            <mxPoint x="140" y="381" as="sourcePoint" />
          </mxGeometry>
        </mxCell>
        <mxCell id="HCHk4H_gu4r0GK-goqtj-12" value="Server" style="swimlane;whiteSpace=wrap" parent="1" vertex="1">
          <mxGeometry x="360" y="120" width="240" height="580" as="geometry" />
        </mxCell>
        <mxCell id="ih6l_atxyEk43AbiFjjY-8" value="" style="edgeStyle=orthogonalEdgeStyle;rounded=0;orthogonalLoop=1;jettySize=auto;html=1;" parent="HCHk4H_gu4r0GK-goqtj-12" source="ih6l_atxyEk43AbiFjjY-4" target="ih6l_atxyEk43AbiFjjY-7" edge="1">
          <mxGeometry relative="1" as="geometry" />
        </mxCell>
        <mxCell id="ih6l_atxyEk43AbiFjjY-4" value="xác định hình thức tương tác" style="html=1;whiteSpace=wrap;" parent="HCHk4H_gu4r0GK-goqtj-12" vertex="1">
          <mxGeometry x="65" y="108.5" width="110" height="50" as="geometry" />
        </mxCell>
        <mxCell id="ih6l_atxyEk43AbiFjjY-7" value="tìm kiếm mục đích tương ứng trong cơ sở dữ liệu" style="html=1;whiteSpace=wrap;" parent="HCHk4H_gu4r0GK-goqtj-12" vertex="1">
          <mxGeometry x="65" y="211.5" width="110" height="50" as="geometry" />
        </mxCell>
        <mxCell id="ih6l_atxyEk43AbiFjjY-9" value="không phản hồi gì lại tiếp tục đợi&amp;nbsp;" style="html=1;whiteSpace=wrap;" parent="HCHk4H_gu4r0GK-goqtj-12" vertex="1">
          <mxGeometry x="65" y="327.5" width="110" height="50" as="geometry" />
        </mxCell>
        <mxCell id="O0ipp-Op6HI6bHyOIER5-16" value="nhận thông tin và xử lý tương ứng" style="html=1;whiteSpace=wrap;" vertex="1" parent="HCHk4H_gu4r0GK-goqtj-12">
          <mxGeometry x="65" y="440" width="110" height="50" as="geometry" />
        </mxCell>
        <mxCell id="ih6l_atxyEk43AbiFjjY-6" style="edgeStyle=orthogonalEdgeStyle;rounded=0;orthogonalLoop=1;jettySize=auto;html=1;entryX=0;entryY=0.5;entryDx=0;entryDy=0;" parent="1" source="ih6l_atxyEk43AbiFjjY-1" target="ih6l_atxyEk43AbiFjjY-4" edge="1">
          <mxGeometry relative="1" as="geometry" />
        </mxCell>
        <mxCell id="O0ipp-Op6HI6bHyOIER5-1" value="Database" style="swimlane;whiteSpace=wrap" vertex="1" parent="1">
          <mxGeometry x="600" y="120" width="240" height="580" as="geometry" />
        </mxCell>
        <mxCell id="O0ipp-Op6HI6bHyOIER5-8" value="" style="edgeStyle=orthogonalEdgeStyle;rounded=0;orthogonalLoop=1;jettySize=auto;html=1;" edge="1" parent="O0ipp-Op6HI6bHyOIER5-1" source="O0ipp-Op6HI6bHyOIER5-2" target="O0ipp-Op6HI6bHyOIER5-5">
          <mxGeometry relative="1" as="geometry" />
        </mxCell>
        <mxCell id="O0ipp-Op6HI6bHyOIER5-2" value="tìm kiếm thông tin tương tác" style="html=1;whiteSpace=wrap;" vertex="1" parent="O0ipp-Op6HI6bHyOIER5-1">
          <mxGeometry x="65" y="211.5" width="110" height="50" as="geometry" />
        </mxCell>
        <mxCell id="O0ipp-Op6HI6bHyOIER5-3" value="gửi lại thông tin mục đích" style="html=1;whiteSpace=wrap;" vertex="1" parent="O0ipp-Op6HI6bHyOIER5-1">
          <mxGeometry x="65" y="440.5" width="110" height="50" as="geometry" />
        </mxCell>
        <mxCell id="O0ipp-Op6HI6bHyOIER5-10" value="" style="edgeStyle=orthogonalEdgeStyle;rounded=0;orthogonalLoop=1;jettySize=auto;html=1;" edge="1" parent="O0ipp-Op6HI6bHyOIER5-1" source="O0ipp-Op6HI6bHyOIER5-5" target="O0ipp-Op6HI6bHyOIER5-3">
          <mxGeometry relative="1" as="geometry" />
        </mxCell>
        <mxCell id="O0ipp-Op6HI6bHyOIER5-13" value="có" style="edgeLabel;html=1;align=center;verticalAlign=middle;resizable=0;points=[];" vertex="1" connectable="0" parent="O0ipp-Op6HI6bHyOIER5-10">
          <mxGeometry x="-0.6853" y="1" relative="1" as="geometry">
            <mxPoint x="9" as="offset" />
          </mxGeometry>
        </mxCell>
        <mxCell id="O0ipp-Op6HI6bHyOIER5-5" value="có tương tác đó không?" style="rhombus;whiteSpace=wrap;html=1" vertex="1" parent="O0ipp-Op6HI6bHyOIER5-1">
          <mxGeometry x="60" y="312.5" width="120" height="80" as="geometry" />
        </mxCell>
        <mxCell id="O0ipp-Op6HI6bHyOIER5-4" style="edgeStyle=orthogonalEdgeStyle;rounded=0;orthogonalLoop=1;jettySize=auto;html=1;" edge="1" parent="1" source="ih6l_atxyEk43AbiFjjY-7" target="O0ipp-Op6HI6bHyOIER5-2">
          <mxGeometry relative="1" as="geometry" />
        </mxCell>
        <mxCell id="O0ipp-Op6HI6bHyOIER5-9" style="edgeStyle=orthogonalEdgeStyle;rounded=0;orthogonalLoop=1;jettySize=auto;html=1;" edge="1" parent="1" source="O0ipp-Op6HI6bHyOIER5-5" target="ih6l_atxyEk43AbiFjjY-9">
          <mxGeometry relative="1" as="geometry" />
        </mxCell>
        <mxCell id="O0ipp-Op6HI6bHyOIER5-12" value="không" style="edgeLabel;html=1;align=center;verticalAlign=middle;resizable=0;points=[];" vertex="1" connectable="0" parent="O0ipp-Op6HI6bHyOIER5-9">
          <mxGeometry x="-0.5929" y="1" relative="1" as="geometry">
            <mxPoint x="14" y="-13" as="offset" />
          </mxGeometry>
        </mxCell>
        <mxCell id="O0ipp-Op6HI6bHyOIER5-17" style="edgeStyle=orthogonalEdgeStyle;rounded=0;orthogonalLoop=1;jettySize=auto;html=1;entryX=1;entryY=0.5;entryDx=0;entryDy=0;" edge="1" parent="1" source="O0ipp-Op6HI6bHyOIER5-3" target="O0ipp-Op6HI6bHyOIER5-16">
          <mxGeometry relative="1" as="geometry" />
        </mxCell>
        <mxCell id="O0ipp-Op6HI6bHyOIER5-18" style="edgeStyle=orthogonalEdgeStyle;rounded=0;orthogonalLoop=1;jettySize=auto;html=1;entryX=1;entryY=0.5;entryDx=0;entryDy=0;" edge="1" parent="1" source="O0ipp-Op6HI6bHyOIER5-16" target="ih6l_atxyEk43AbiFjjY-12">
          <mxGeometry relative="1" as="geometry" />
        </mxCell>
      </root>
    </mxGraphModel>
  </diagram>
</mxfile>
